<?xml version="1.0" encoding="utf-8"?>
<!-- Generator: Adobe Illustrator 21.0.2, SVG Export Plug-In . SVG Version: 6.00 Build 0)  -->
<svg version="1.1" id="レイヤー_1" xmlns="http://www.w3.org/2000/svg" xmlns:xlink="http://www.w3.org/1999/xlink" x="0px"
	 y="0px" viewBox="0 0 512 512" style="enable-background:new 0 0 512 512;" xml:space="preserve">
<style type="text/css">
	.st0{fill:none;stroke:#000000;stroke-width:32;stroke-miterlimit:10;}
</style>
<g>
	<g>
		<g>
			<path d="M210.9,142.9c46-25.2,73.8-33.5,99.1-29.6c20.1,2.9,35.2,16.1,46.3,36.4c25.4,46.5,1.4,88.1-38.7,128.4
				c-23,23.4-26.7,29.6-21.2,39.7c6.6,12,17,21.6,26.6,29.2c-18.5,9.4-36.5,19.6-54.7,31c-17.9-19.7-40.3-49.1-59.7-84.6
				c-19.3-34.5-36.9-75.2-47-120.4C178.2,161.5,195.2,151.5,210.9,142.9z M310.1,228.4c6.8-15.5,5.3-35.5-4.2-52.9
				c-10.7-19.5-28.1-27.6-61.4-9.4c-11.8,6.5-15.2,9.7-17.2,13.9c-5.4,11.7,7.2,42.6,24.7,73.9c7.2,13.1,12,18.4,19.6,14.2
				C282.3,262.4,301.5,246.4,310.1,228.4z"/>
		</g>
	</g>
</g>
<g id="XMLID_1_">
	<path d="M274.5,425.7c2.3,3.2,3.6,6.8,3.1,10.3c-0.5,3.5-1,8.2-1.6,10.6c-0.6,2.4-0.9,7.2-1.2,11.8c-0.3,4.6,0.3,24.4,0.7,27.3
		c0.2,1.2,0.5,3.6,0.7,6.3c-14.2,0-27.9-0.1-42.2-0.8c-0.2-5-0.5-12.7-1-18.6c-0.7-8.5-6.4-9.3-9.5-13.2
		c-3.1-3.9-8.4-11.1-12.8-15.9c-4.3-4.8-10.4-9.2-11.7-10.2c-1.4-1-6.7-4.2-7.6-8.9c-5.2-3.4-4.4-12.6-4.4-13.3s-0.4-2.5-0.9-3.3
		c-0.6-0.8-2.5-7.3-2.5-7.3c-2.7-1.4-12.5-9.2-14.8-11c-2.2-1.8-2.8-1.7-4.4-4.2c-3.6-5.7-8-8.4-9-9.2c-0.9-0.8-4.8-2.8-5.2-4.4
		c-3.4-1.5-9.1-6.8-10.6-10.1c-1.6-3.2,1.2-2.7,2.2-2.4s2.7,1.3,2.7,1.3s1.3-0.8,5.6-0.2c4.4,0.6,10.1,2.1,15.4,7
		c4.3,1.2,12.5,7.3,12.5,7.3c-0.1-1.3-0.7-3.5-0.7-4.9c0-1.4-1-4.5-1.5-6.4c-0.5-1.8,0-3.2,0-3.2c-0.9-4.4-0.8-10,0.6-10
		c1.5,0,2.3,2.1,2.3,2.1c2.7,0,4.9,1.8,7,3.8c2.1,2,3.1,8,3.1,8s0.1-5.6,1.9-5.7c1.9-0.1,3.5,2.9,3.5,2.9s4.3,0.8,6,5.6
		c1.5,4.4,3.5,12.3,3.5,16.1c0.6,1.4,1.5,6.5,1.5,6.5c-0.1-1.5,0.6-5.5,0.8-5.7c0-0.4,0-0.4,0.2-1.5c0.2-1.1,0.6-1.2,2-1.2
		c1.5,0,2.2,2.9,2.2,2.9c1.7,0.1,3.5,4,4.5,6.7c1,2.7,1.2,6.7,1.2,6.7c2.4,1.6,4.9,4.4,5.7,5.3c0.8,0.8,1.2,1,3.3,1.4
		c2.1,0.4,5.8,0.4,5.8,0.4c-0.7-4.4-1.6-4.9-3.6-8.5c-2-3.6-4.3-9.2-5.9-15.8c-1.7-6.7,1.5-11.1,1.5-11.1s-1.2-7.9,5.3-10.2
		c6.5-2.3,9.8,3.4,9.8,3.4c1,0.1,4.1,1.8,5,4.1c0.9,2.2,2,5.3,4.6,10.6c2.6,5.4,2.7,12.2,3.6,16.4c0.9,4.2,5.4,9,6.4,10.4
		c1.2,1.6,2.4,5,3,6.8c0.6,1.8,6.4,5.9,7.8,7.3C271.6,420.4,272.2,422.4,274.5,425.7z"/>
</g>
<circle class="st0" cx="255.5" cy="255.5" r="236.5"/>
</svg>
